PathFileType	4	(X/Y/Z)	/Users/itak/Documents/Research/Walk-IL/dataset/trc/00098_00007.trc
DataRate	CameraRate	NumFrames	NumMarkers	Units	OrigDataRate	OrigDataStartFrame	OrigNumFrames
100.000000	100.000000	4	53	mm	100.000000	0	556
Frame#	Time	RPSI			LPSI			L3			STRN			T10			C7			CLAV			RBAK			LBAK			LSHO			LUPA			LAEL			LAOL			LWTS			LWPS			LFRA			LIFD			LHPS			LHTS			RSHO			RUPA			RAEL			RAOL			RWTS			RWPS			RFRA			RIFD			RHTS			RHPS			RBHD			LFHD			RFHD			LBHD			LHIP			RHIP			RASI			LASI			LKNE			LTHI			LANK			LTIP			LTOE			LMT1			LMT5			LHEE			RKNE			RTHI			RANK			RTIP			RTOE			RMT1			RMT5			RHEE			
		X1	Y1	Z1	X2	Y2	Z2	X3	Y3	Z3	X4	Y4	Z4	X5	Y5	Z5	X6	Y6	Z6	X7	Y7	Z7	X8	Y8	Z8	X9	Y9	Z9	X10	Y10	Z10	X11	Y11	Z11	X12	Y12	Z12	X13	Y13	Z13	X14	Y14	Z14	X15	Y15	Z15	X16	Y16	Z16	X17	Y17	Z17	X18	Y18	Z18	X19	Y19	Z19	X20	Y20	Z20	X21	Y21	Z21	X22	Y22	Z22	X23	Y23	Z23	X24	Y24	Z24	X25	Y25	Z25	X26	Y26	Z26	X27	Y27	Z27	X28	Y28	Z28	X29	Y29	Z29	X30	Y30	Z30	X31	Y31	Z31	X32	Y32	Z32	X33	Y33	Z33	X34	Y34	Z34	X35	Y35	Z35	X36	Y36	Z36	X37	Y37	Z37	X38	Y38	Z38	X39	Y39	Z39	X40	Y40	Z40	X41	Y41	Z41	X42	Y42	Z42	X43	Y43	Z43	X44	Y44	Z44	X45	Y45	Z45	X46	Y46	Z46	X47	Y47	Z47	X48	Y48	Z48	X49	Y49	Z49	X50	Y50	Z50	X51	Y51	Z51	X52	Y52	Z52	X53	Y53	Z53	

1	0	-1924.484375	1125.64208984375	-268.5091247558594	-1921.361694335938	1127.343017578125	-403.2137756347656	-1930.195434570312	1159.839111328125	-338.6077575683594	-1710.986083984375	1364.432739257812	-332.0079345703125	-1969.910400390625	1311.890625	-341.0485534667969	-1932.00830078125	1603.632568359375	-354.8082275390625	-1744.591918945312	1500.401123046875	-337.6017150878906	-1991.105102539062	1420.418090820312	-267.9417419433594	-1934.147338867188	1584.91259765625	-457.1655883789062	-1843.160278320312	1571.997802734375	-520.7171020507812	-1856.421508789062	1439.382202148438	-591.6526489257812	-1832.764038085938	1219.148681640625	-608.2882690429688	-1901.134155273438	1204.881713867188	-554.8779296875	-1725.809448242188	966.6414184570312	-557.0830688476562	-1804.7177734375	937.3950805664062	-587.0274047851562	-1812.369873046875	1103.996826171875	-609.4393920898438	-1710.650268554688	774.0026245117188	-529.5042114257812	-1771.852416992188	863.4406127929688	-585.0017700195312	-1705.964111328125	877.0963745117188	-565.0338134765625	-1884.100463867188	1587.756591796875	-170.5658111572266	-1902.187255859375	1514.979125976562	-106.5843200683594	-1903.6181640625	1219.404174804688	-81.38880157470703	-1912.880615234375	1217.413208007812	-178.2631378173828	-1753.010498046875	979.9982299804688	-100.0598983764648	-1826.722290039062	961.9005126953125	-63.95683670043945	-1877.5888671875	1146.656372070312	-66.54965972900391	-1725.865234375	784.7422485351562	-115.4127349853516	-1721.201904296875	871.4332275390625	-94.82073974609375	-1786.930786132812	862.9971313476562	-60.75530242919922	-1903.537719726562	1771.885131835938	-274.8504333496094	-1747.994262695312	1844.982666015625	-414.6644592285156	-1745.581420898438	1856.019897460938	-285.2506103515625	-1912.178100585938	1763.923583984375	-409.3076171875	-1824.624267578125	1038.880615234375	-506.8368835449219	-1799.8271484375	1031.156127929688	-148.1249237060547	-1717.316528320312	1106.218627929688	-198.2884368896484	-1719.821899414062	1105.357788085938	-464.3221740722656	-1797.7470703125	537.0125122070312	-472.5579833984375	-1818.372680664062	682.9067993164062	-501.8127746582031	-1913.279418945312	37.13708114624023	-462.8037109375	-1899.909057617188	290.4191284179688	-498.5870971679688	-1684.027954101562	36.45851516723633	-398.4125366210938	-1766.1669921875	40.13119125366211	-366.9017333984375	-1786.629516601562	34.21536636352539	-484.7097778320312	-1983.245727539062	36.9024658203125	-401.1947021484375	-1804.0576171875	538.3543090820312	-184.5217895507812	-1779.180419921875	818.0847778320312	-155.3802642822266	-1905.175170898438	27.71180534362793	-209.2347259521484	-1831.901977539062	404.5477905273438	-174.7946472167969	-1671.409301757812	40.50465774536133	-252.0854797363281	-1729.8828125	31.41457939147949	-296.3672485351562	-1772.757568359375	37.13673782348633	-182.17626953125	-1960.351684570312	31.56033134460449	-260.6628112792969	
2	0.01	-1924.473388671875	1125.641723632812	-268.4888610839844	-1921.34423828125	1127.343505859375	-403.19482421875	-1930.158569335938	1159.833129882812	-338.5664672851562	-1710.962768554688	1364.43310546875	-332.05078125	-1969.879760742188	1311.873901367188	-341.0330505371094	-1931.960693359375	1603.615356445312	-354.86767578125	-1744.491943359375	1500.39697265625	-337.7032470703125	-1991.068969726562	1420.451538085938	-267.9585876464844	-1934.132690429688	1584.861694335938	-457.2303466796875	-1843.222290039062	1571.947509765625	-520.8147583007812	-1856.470092773438	1439.262817382812	-591.6685180664062	-1832.8349609375	1219.054809570312	-608.2345581054688	-1901.181884765625	1204.804321289062	-554.7783813476562	-1725.829833984375	966.536376953125	-556.9915161132812	-1804.819213867188	937.2940673828125	-586.9179077148438	-1812.439819335938	1103.912109375	-609.3598022460938	-1710.722778320312	773.8873291015625	-529.4035034179688	-1771.942138671875	863.3488159179688	-584.8768310546875	-1706.083618164062	877.0018310546875	-564.9595336914062	-1883.984375	1587.81005859375	-170.638427734375	-1902.070556640625	1515.030639648438	-106.6176452636719	-1903.482788085938	1219.452026367188	-81.35159301757812	-1912.821166992188	1217.451416015625	-178.2424621582031	-1752.895629882812	980.0538940429688	-100.0526962280273	-1826.579833984375	961.9539184570312	-63.89271926879883	-1877.399291992188	1146.7587890625	-66.51396179199219	-1725.755737304688	784.7968139648438	-115.3881912231445	-1721.060913085938	871.5538940429688	-94.80504608154297	-1786.822631835938	863.0287475585938	-60.72316360473633	-1903.442504882812	1771.862060546875	-274.9354553222656	-1747.855712890625	1844.995483398438	-414.7330017089844	-1745.495361328125	1856.010498046875	-285.3208618164062	-1912.083618164062	1763.946044921875	-409.4076538085938	-1824.6279296875	1038.871826171875	-506.808349609375	-1799.813232421875	1031.161254882812	-148.0988464355469	-1717.314331054688	1106.222412109375	-198.2707824707031	-1719.812377929688	1105.330810546875	-464.308837890625	-1797.738403320312	537.009033203125	-472.5394287109375	-1818.367919921875	682.91064453125	-501.8000183105469	-1913.28515625	37.14266586303711	-462.8112182617188	-1899.908081054688	290.4281616210938	-498.5638732910156	-1684.025024414062	36.45861434936523	-398.4121398925781	-1766.168823242188	40.13143539428711	-366.9030151367188	-1786.620849609375	34.21871948242188	-484.7124328613281	-1983.245361328125	36.9024543762207	-401.1952819824219	-1804.066650390625	538.3556518554688	-184.5120239257812	-1779.134887695312	818.0955200195312	-155.3434448242188	-1905.156616210938	27.69101905822754	-209.2344055175781	-1831.91552734375	404.5489196777344	-174.7830505371094	-1671.401977539062	40.50953674316406	-252.0846557617188	-1729.880737304688	31.41510391235352	-296.3663940429688	-1772.742431640625	37.15426635742188	-182.1782531738281	-1960.353515625	31.57063865661621	-260.6676940917969	
3	0.02	-1924.456787109375	1125.642578125	-268.4630432128906	-1921.321411132812	1127.34375	-403.1701965332031	-1930.09765625	1159.827270507812	-338.5075988769531	-1710.931762695312	1364.432006835938	-332.1074523925781	-1969.838623046875	1311.852661132812	-341.0122375488281	-1931.902954101562	1603.593994140625	-354.9407653808594	-1744.382202148438	1500.388916015625	-337.8211669921875	-1991.022216796875	1420.491333007812	-267.9800720214844	-1934.117065429688	1584.797119140625	-457.3086242675781	-1843.292236328125	1571.885986328125	-520.9280395507812	-1856.525512695312	1439.119506835938	-591.685791015625	-1832.922119140625	1218.936401367188	-608.1687622070312	-1901.234497070312	1204.709716796875	-554.6609497070312	-1725.856689453125	966.404052734375	-556.8727416992188	-1804.943725585938	937.1681518554688	-586.7799072265625	-1812.52001953125	1103.803100585938	-609.2606201171875	-1710.8125	773.74755859375	-529.2584838867188	-1772.058471679688	863.232666015625	-584.7147216796875	-1706.224731445312	876.8828125	-564.8507080078125	-1883.849609375	1587.875	-170.7285003662109	-1901.929077148438	1515.0966796875	-106.6622772216797	-1903.311157226562	1219.5126953125	-81.30494689941406	-1912.7392578125	1217.49951171875	-178.2131042480469	-1752.748413085938	980.1300659179688	-100.042350769043	-1826.398559570312	962.0252685546875	-63.81253814697266	-1877.173950195312	1146.8759765625	-66.47537231445312	-1725.6083984375	784.873046875	-115.3557434082031	-1720.883544921875	871.7076416015625	-94.78260803222656	-1786.658325195312	863.07421875	-60.68746566772461	-1903.321166992188	1771.839477539062	-275.0381774902344	-1747.68310546875	1845.011596679688	-414.8115234375	-1745.39111328125	1855.995849609375	-285.4005432128906	-1911.96044921875	1763.97900390625	-409.5361328125	-1824.631713867188	1038.860107421875	-506.7730407714844	-1799.793334960938	1031.166870117188	-148.0672760009766	-1717.308227539062	1106.2275390625	-198.2490844726562	-1719.79443359375	1105.297241210938	-464.296875	-1797.728271484375	537.0055541992188	-472.5167846679688	-1818.3642578125	682.9158935546875	-501.7847290039062	-1913.290893554688	37.14735794067383	-462.8186950683594	-1899.908203125	290.4364013671875	-498.5365295410156	-1684.02197265625	36.45781707763672	-398.4106750488281	-1766.170166015625	40.1318473815918	-366.9032897949219	-1786.61328125	34.2212028503418	-484.7158813476562	-1983.244506835938	36.9026985168457	-401.1968078613281	-1804.076538085938	538.3568725585938	-184.4990386962891	-1779.08056640625	818.1098022460938	-155.2980804443359	-1905.143676757812	27.6753101348877	-209.2336120605469	-1831.928833007812	404.5513610839844	-174.7691345214844	-1671.39404296875	40.51486968994141	-252.0827331542969	-1729.878173828125	31.41583251953125	-296.3652038574219	-1772.725952148438	37.1722297668457	-182.1805267333984	-1960.355224609375	31.57962989807129	-260.6720581054688	
4	0.03	-1924.433837890625	1125.64501953125	-268.4322814941406	-1921.293701171875	1127.34375	-403.1403503417969	-1930.010498046875	1159.822387695312	-338.4314575195312	-1710.894165039062	1364.42822265625	-332.1765747070312	-1969.78759765625	1311.828125	-340.9863891601562	-1931.838012695312	1603.56982421875	-355.0238342285156	-1744.2783203125	1500.375610351562	-337.9448547363281	-1990.966064453125	1420.534912109375	-268.0054321289062	-1934.101684570312	1584.721557617188	-457.3955078125	-1843.363891601562	1571.816650390625	-521.0487060546875	-1856.582885742188	1438.961181640625	-591.7028198242188	-1833.02099609375	1218.798828125	-608.0948486328125	-1901.288696289062	1204.603393554688	-554.5340576171875	-1725.890502929688	966.2507934570312	-556.7301635742188	-1805.085327148438	937.0233764648438	-586.6185302734375	-1812.605346679688	1103.673583984375	-609.146484375	-1710.915283203125	773.5914306640625	-529.0664672851562	-1772.196899414062	863.0967407226562	-584.5197143554688	-1706.377319335938	876.7451782226562	-564.7060546875	-1883.706787109375	1587.947387695312	-170.8317413330078	-1901.770629882812	1515.17529296875	-106.7174758911133	-1903.110473632812	1219.583374023438	-81.25123596191406	-1912.635009765625	1217.555419921875	-178.1746215820312	-1752.573608398438	980.2265014648438	-100.0282592773438	-1826.1845703125	962.1134643554688	-63.72050476074219	-1876.928588867188	1147.000366210938	-66.43683624267578	-1725.426025390625	784.9703979492188	-115.3160781860352	-1720.6806640625	871.8861083984375	-94.75383758544922	-1786.432739257812	863.1343383789062	-60.65130615234375	-1903.177856445312	1771.82177734375	-275.1527099609375	-1747.484497070312	1845.029907226562	-414.8932189941406	-1745.273803710938	1855.97509765625	-285.4836120605469	-1911.812622070312	1764.023071289062	-409.6873168945312	-1824.635864257812	1038.845703125	-506.7329406738281	-1799.767822265625	1031.172241210938	-148.0317230224609	-1717.296875	1106.233642578125	-198.2246246337891	-1719.76611328125	1105.2578125	-464.2882080078125	-1797.718139648438	537.0026245117188	-472.4915771484375	-1818.362426757812	682.92236328125	-501.7677612304688	-1913.295776367188	37.15021514892578	-462.8248291015625	-1899.910766601562	290.4427490234375	-498.5071716308594	-1684.018920898438	36.4561767578125	-398.4085083007812	-1766.170532226562	40.13230895996094	-366.9022216796875	-1786.6083984375	34.22225952148438	-484.7196655273438	-1983.2431640625	36.90336608886719	-401.198974609375	-1804.085083007812	538.3575439453125	-184.4836730957031	-1779.020385742188	818.1275024414062	-155.2473297119141	-1905.13720703125	27.66564750671387	-209.2324829101562	-1831.9404296875	404.5545349121094	-174.7538299560547	-1671.38623046875	40.51974487304688	-252.0798645019531	-1729.875122070312	31.41669082641602	-296.3638000488281	-1772.709350585938	37.18839645385742	-182.1829681396484	-1960.3564453125	31.58586883544922	-260.6752624511719	
